<svg width="40" height="40" viewBox="0 0 40 40" fill="none" xmlns="http://www.w3.org/2000/svg">
<g clip-path="url(#clip0)">
<path d="M19.9006 39.8013C30.8915 39.8013 39.8013 30.8915 39.8013 19.9006C39.8013 8.90982 30.8915 0 19.9006 0C8.90982 0 0 8.90982 0 19.9006C0 30.8915 8.90982 39.8013 19.9006 39.8013Z" fill="#3C5A99"/>
<path fill-rule="evenodd" clip-rule="evenodd" d="M17.4535 19.806V29.4845C17.4535 29.5513 17.48 29.6155 17.5273 29.6628C17.5746 29.7101 17.6388 29.7367 17.7057 29.7367H21.2996C21.3329 29.7372 21.3659 29.731 21.3968 29.7185C21.4276 29.7061 21.4556 29.6875 21.4791 29.664C21.5027 29.6405 21.5212 29.6124 21.5337 29.5816C21.5462 29.5508 21.5524 29.5177 21.5518 29.4845V19.6327H24.1606C24.2239 19.632 24.2848 19.6078 24.3313 19.5649C24.3779 19.5219 24.4069 19.4632 24.4128 19.4002L24.661 16.4367C24.6637 16.4018 24.6592 16.3667 24.6478 16.3336C24.6364 16.3005 24.6183 16.27 24.5947 16.2442C24.5711 16.2183 24.5424 16.1976 24.5104 16.1833C24.4784 16.1689 24.4439 16.1613 24.4088 16.1609H21.5518V14.0762C21.5518 13.9574 21.5755 13.8398 21.6214 13.7302C21.6673 13.6207 21.7346 13.5213 21.8194 13.4381C21.9041 13.3548 22.0046 13.2892 22.115 13.2452C22.2253 13.2012 22.3433 13.1796 22.4621 13.1817H24.4719C24.5388 13.1817 24.6029 13.1551 24.6502 13.1078C24.6975 13.0605 24.7241 12.9964 24.7241 12.9295V9.96607C24.7241 9.89918 24.6975 9.83503 24.6502 9.78774C24.6029 9.74044 24.5388 9.71387 24.4719 9.71387H21.0592C20.1029 9.71387 19.1858 10.0938 18.5096 10.77C17.8334 11.4462 17.4535 12.3633 17.4535 13.3196V16.1766H15.6565C15.5896 16.1766 15.5255 16.2032 15.4782 16.2505C15.4309 16.2978 15.4043 16.362 15.4043 16.4289V19.3962C15.4043 19.4631 15.4309 19.5273 15.4782 19.5746C15.5255 19.6219 15.5896 19.6484 15.6565 19.6484H17.4535V19.806Z" fill="white"/>
</g>
<defs>
<clipPath id="clip0">
<rect width="39.8013" height="39.8013" fill="white"/>
</clipPath>
</defs>
</svg>
