<svg width="40" height="40" viewBox="0 0 40 40" fill="none" xmlns="http://www.w3.org/2000/svg">
<g clip-path="url(#clip0)">
<path d="M19.9006 39.8013C30.8915 39.8013 39.8013 30.8915 39.8013 19.9006C39.8013 8.90982 30.8915 0 19.9006 0C8.90982 0 0 8.90982 0 19.9006C0 30.8915 8.90982 39.8013 19.9006 39.8013Z" fill="url(#paint0_linear)"/>
<path d="M26.3083 12.1216C26.0277 12.1216 25.7534 12.2048 25.5201 12.3607C25.2868 12.5166 25.105 12.7381 24.9976 12.9973C24.8903 13.2566 24.8622 13.5418 24.9169 13.817C24.9716 14.0922 25.1068 14.345 25.3052 14.5434C25.5036 14.7418 25.7564 14.8769 26.0315 14.9316C26.3067 14.9864 26.592 14.9583 26.8512 14.8509C27.1104 14.7435 27.332 14.5617 27.4879 14.3284C27.6438 14.0951 27.727 13.8208 27.727 13.5402C27.727 13.164 27.5775 12.8031 27.3115 12.5371C27.0454 12.271 26.6846 12.1216 26.3083 12.1216Z" fill="white"/>
<path d="M19.9994 13.9424C18.8211 13.9432 17.6695 14.2933 16.6901 14.9485C15.7108 15.6037 14.9477 16.5345 14.4973 17.6233C14.047 18.7121 13.9295 19.91 14.1599 21.0656C14.3902 22.2211 14.958 23.2824 15.7915 24.1153C16.6249 24.9482 17.6866 25.5153 18.8423 25.7449C19.998 25.9745 21.1959 25.8563 22.2844 25.4052C23.3729 24.9541 24.3032 24.1904 24.9578 23.2106C25.6123 22.2309 25.9617 21.079 25.9617 19.9007C25.9606 18.3201 25.332 16.8046 24.2139 15.6873C23.0959 14.57 21.58 13.9424 19.9994 13.9424ZM19.9994 23.7193C19.2441 23.7193 18.5058 23.4954 17.8779 23.0758C17.2499 22.6562 16.7605 22.0598 16.4715 21.362C16.1824 20.6643 16.1068 19.8965 16.2542 19.1558C16.4015 18.4151 16.7652 17.7347 17.2992 17.2006C17.8333 16.6666 18.5137 16.3029 19.2544 16.1556C19.9951 16.0082 20.7629 16.0838 21.4606 16.3729C22.1584 16.6619 22.7548 17.1513 23.1744 17.7793C23.594 18.4072 23.8179 19.1455 23.8179 19.9007C23.8169 20.9132 23.4142 21.8838 22.6983 22.5997C21.9824 23.3156 21.0118 23.7183 19.9994 23.7193Z" fill="white"/>
<path d="M24.7321 32.0025H15.0695C13.1421 31.9994 11.2946 31.2323 9.9318 29.8695C8.56897 28.5067 7.80195 26.6592 7.79883 24.7319V15.0692C7.80195 13.1419 8.56897 11.2944 9.9318 9.93155C11.2946 8.56872 13.1421 7.80171 15.0695 7.79858H24.7321C26.6594 7.80171 28.5069 8.56872 29.8698 9.93155C31.2326 11.2944 31.9996 13.1419 32.0027 15.0692V24.7319C31.9996 26.6592 31.2326 28.5067 29.8698 29.8695C28.5069 31.2323 26.6594 31.9994 24.7321 32.0025ZM15.0695 10.0763C13.7456 10.0774 12.4762 10.6037 11.5401 11.5399C10.604 12.476 10.0776 13.7453 10.0766 15.0692V24.7319C10.0776 26.0557 10.604 27.3251 11.5401 28.2612C12.4762 29.1973 13.7456 29.7237 15.0695 29.7248H24.7321C26.056 29.7237 27.3253 29.1973 28.2615 28.2612C29.1976 27.3251 29.724 26.0557 29.725 24.7319V15.0692C29.724 13.7453 29.1976 12.476 28.2615 11.5399C27.3253 10.6037 26.056 10.0774 24.7321 10.0763H15.0695Z" fill="white"/>
</g>
<defs>
<linearGradient id="paint0_linear" x1="3.81462" y1="33.5986" x2="53.2076" y2="-8.46073" gradientUnits="userSpaceOnUse">
<stop stop-color="#FBE18A"/>
<stop offset="0.21" stop-color="#FCBB45"/>
<stop offset="0.38" stop-color="#F75274"/>
<stop offset="0.52" stop-color="#D53692"/>
<stop offset="0.74" stop-color="#8F39CE"/>
<stop offset="1" stop-color="#5B4FE9"/>
</linearGradient>
<clipPath id="clip0">
<rect width="39.8013" height="39.8013" fill="white"/>
</clipPath>
</defs>
</svg>
