<svg width="40" height="40" viewBox="0 0 40 40" fill="none" xmlns="http://www.w3.org/2000/svg">
<g clip-path="url(#clip0)">
<path d="M19.9006 39.8013C30.8915 39.8013 39.8013 30.8915 39.8013 19.9006C39.8013 8.90982 30.8915 0 19.9006 0C8.90982 0 0 8.90982 0 19.9006C0 30.8915 8.90982 39.8013 19.9006 39.8013Z" fill="white"/>
<path fill-rule="evenodd" clip-rule="evenodd" d="M17.4535 19.806V29.4845C17.4535 29.5513 17.48 29.6155 17.5273 29.6628C17.5746 29.7101 17.6388 29.7367 17.7057 29.7367H21.2996C21.3329 29.7372 21.3659 29.731 21.3968 29.7185C21.4276 29.7061 21.4556 29.6875 21.4791 29.664C21.5027 29.6405 21.5212 29.6124 21.5337 29.5816C21.5462 29.5508 21.5524 29.5177 21.5518 29.4845V19.6327H24.1606C24.2239 19.632 24.2848 19.6078 24.3313 19.5649C24.3779 19.5219 24.4069 19.4632 24.4128 19.4002L24.661 16.4367C24.6637 16.4018 24.6592 16.3667 24.6478 16.3336C24.6364 16.3005 24.6183 16.27 24.5947 16.2442C24.5711 16.2183 24.5424 16.1976 24.5104 16.1833C24.4784 16.1689 24.4439 16.1613 24.4088 16.1609H21.5518V14.0762C21.5518 13.9574 21.5755 13.8398 21.6214 13.7302C21.6673 13.6207 21.7346 13.5213 21.8194 13.4381C21.9041 13.3548 22.0046 13.2892 22.115 13.2452C22.2253 13.2012 22.3433 13.1796 22.4621 13.1817H24.4719C24.5388 13.1817 24.6029 13.1551 24.6502 13.1078C24.6975 13.0605 24.7241 12.9964 24.7241 12.9295V9.96607C24.7241 9.89918 24.6975 9.83503 24.6502 9.78774C24.6029 9.74044 24.5388 9.71387 24.4719 9.71387H21.0592C20.1029 9.71387 19.1858 10.0938 18.5096 10.77C17.8334 11.4462 17.4535 12.3633 17.4535 13.3196V16.1766H15.6565C15.5896 16.1766 15.5255 16.2032 15.4782 16.2505C15.4309 16.2978 15.4043 16.362 15.4043 16.4289V19.3962C15.4043 19.4631 15.4309 19.5273 15.4782 19.5746C15.5255 19.6219 15.5896 19.6484 15.6565 19.6484H17.4535V19.806Z" fill="white"/>
<g clip-path="url(#clip1)">
<path d="M19.9998 7.55646e-06C15.4072 -0.000614007 10.9542 1.57934 7.38909 4.47444C3.82396 7.36953 1.36387 11.4034 0.422105 15.8982C-0.519657 20.3931 0.114298 25.0752 2.21747 29.1578C4.32063 33.2404 7.76486 36.4749 11.9715 38.3177C11.9147 36.9212 11.9613 35.2447 12.3199 33.7257C12.7048 32.1018 14.893 22.8274 14.893 22.8274C14.4586 21.8295 14.2409 20.7508 14.2545 19.6625C14.2545 16.6989 15.9718 14.486 18.1119 14.486C19.9298 14.486 20.8089 15.8519 20.8089 17.489C20.8089 19.317 19.6426 22.0518 19.0435 24.5855C18.542 26.708 20.1062 28.4384 22.1997 28.4384C25.99 28.4384 28.5412 23.5708 28.5412 17.8053C28.5412 13.4218 25.5891 10.1403 20.2199 10.1403C14.1524 10.1403 10.3723 14.6594 10.3723 19.7179C10.3723 21.4673 10.8869 22.6889 11.6843 23.6408C12.0546 24.0781 12.1056 24.2531 11.9759 24.756C11.8797 25.1234 11.6595 26.0097 11.5677 26.3596C11.435 26.8654 11.0254 27.0462 10.5676 26.8596C7.77296 25.7196 6.47112 22.6583 6.47112 19.2194C6.47112 13.534 11.263 6.72474 20.7652 6.72474C28.4013 6.72474 33.4264 12.2512 33.4264 18.1814C33.4264 26.0272 29.0646 31.8846 22.6385 31.8846C20.4794 31.8846 18.4487 30.7183 17.7518 29.3917C17.7518 29.3917 16.5856 33.9998 16.345 34.889C15.9208 36.4314 15.0913 37.9722 14.3317 39.1735C17.0833 39.9893 19.9782 40.2034 22.8198 39.8012C25.6614 39.3991 28.3832 38.3901 30.8002 36.8428C33.2173 35.2956 35.2731 33.2462 36.8279 30.834C38.3827 28.4219 39.4001 25.7033 39.8111 22.8631C40.222 20.0228 40.0169 17.1274 39.2096 14.3735C38.4023 11.6195 37.0117 9.07157 35.1323 6.90268C33.2529 4.7338 30.9288 2.99477 28.3177 1.80373C25.7066 0.61268 22.8697 -0.002487 19.9998 7.55646e-06Z" fill="#CB2027"/>
</g>
</g>
<defs>
<clipPath id="clip0">
<rect width="39.8013" height="39.8013" fill="white"/>
</clipPath>
<clipPath id="clip1">
<rect width="40" height="40" fill="white"/>
</clipPath>
</defs>
</svg>
