<svg width="113" height="1255" viewBox="0 0 113 1255" fill="none" xmlns="http://www.w3.org/2000/svg">
<g clip-path="url(#clip0)">
<path d="M2.18648 1254.99L2.18648 1197.7L14.282 1197.7L14.282 1205.18C14.282 1209.93 14.836 1212.93 15.9901 1214.09C17.1443 1215.24 19.8681 1215.84 24.1615 1215.84L96.873 1215.84L96.873 1195.9C96.873 1188.79 96.2729 1183.48 95.0264 1179.97C93.8261 1176.46 91.7486 1173.92 88.9325 1172.35C86.1625 1170.83 82.8385 1169.72 78.9144 1169.03C74.9441 1168.29 70.2352 1167.92 64.7415 1167.92L62.8025 1167.92L62.8025 1155.69L108.969 1155.69L108.969 1254.99L96.873 1254.99L96.873 1248.8C96.873 1244.1 96.319 1241.14 95.2111 1239.99C94.1031 1238.83 91.3793 1238.28 86.9935 1238.28L24.1153 1238.28C19.7757 1238.28 17.0519 1238.83 15.8978 1239.99C14.7898 1241.14 14.2358 1244.05 14.2358 1248.8L14.2358 1254.99L2.14031 1254.99L2.18648 1254.99ZM108.969 1144.56L96.873 1144.56L96.873 1138.38C96.873 1133.67 96.319 1130.71 95.211 1129.56C94.1031 1128.4 91.3331 1127.85 86.9473 1127.85L24.0692 1127.85C19.7296 1127.85 17.0058 1128.4 15.944 1129.56C14.836 1130.71 14.282 1133.62 14.282 1138.38L14.282 1144.56L2.18648 1144.56L2.18647 1039.53L44.6592 1039.53L44.6592 1051.63C32.5176 1051.95 24.3923 1053.94 20.3297 1057.58C16.2671 1061.23 14.2358 1068.66 14.2358 1079.79L14.2358 1105.41L47.0137 1105.41L47.0137 1099.36C47.0137 1092.67 45.8595 1088.29 43.5512 1086.21C41.2429 1084.13 35.9338 1082.84 27.624 1082.33L27.5316 1070.23L81.0842 1070.23L80.9919 1082.33C71.851 1082.79 65.9418 1084.04 63.2641 1086.16C60.5865 1088.24 59.2477 1092.58 59.2477 1099.23L59.2477 1105.41L96.8269 1105.41L96.8269 1077.44C96.8269 1068.11 94.6571 1061.69 90.3174 1058.18C85.9778 1054.72 77.114 1052.51 63.7258 1051.58L63.7258 1039.49L108.922 1039.49L108.922 1144.52L108.969 1144.56ZM13.9588 985.427L13.9588 987.505C13.9588 995.999 16.4979 1002.23 21.5762 1006.11C26.7006 1009.99 34.9644 1012.02 46.4135 1012.16L46.4135 1024.39L2.18647 1024.39L2.18647 923.796L46.4135 923.796L46.4135 936.03C35.1029 936.122 26.8853 938.107 21.7147 942.031C16.5441 945.909 13.9588 952.095 13.9588 960.59L13.9588 962.944L86.9935 962.944C91.2869 962.944 94.0107 962.344 95.1649 961.19C96.319 960.036 96.873 957.035 96.873 952.326L96.873 943.231L108.969 943.231L108.969 1005.14L96.873 1005.14L96.873 995.861C96.873 991.152 96.319 988.243 95.211 987.089C94.1031 985.935 91.3793 985.381 86.9935 985.381L13.9588 985.381L13.9588 985.427ZM13.9588 877.491L13.9588 879.568C13.9588 888.063 16.4979 894.295 21.5762 898.173C26.7006 902.051 34.9644 904.083 46.4135 904.221L46.4135 916.455L2.18647 916.455L2.18646 815.859L46.4135 815.859L46.4135 828.093C35.1029 828.186 26.8853 830.171 21.7147 834.095C16.5441 837.973 13.9588 844.159 13.9588 852.654L13.9588 855.008L86.9935 855.008C91.2869 855.008 94.0107 854.408 95.1649 853.254C96.319 852.1 96.873 849.099 96.873 844.39L96.873 835.295L108.969 835.295L108.969 897.204L96.873 897.204L96.873 887.924C96.873 883.216 96.319 880.307 95.211 879.153C94.103 877.999 91.3792 877.445 86.9935 877.445L13.9588 877.445L13.9588 877.491ZM108.969 808.565L96.873 808.565L96.873 802.379C96.873 797.67 96.319 794.715 95.211 793.561C94.103 792.407 91.3331 791.853 86.9473 791.853L24.0692 791.853C19.7296 791.853 17.0058 792.407 15.9439 793.561C14.836 794.715 14.282 797.624 14.282 802.379L14.282 808.565L2.18646 808.565L2.18646 703.537L44.6592 703.537L44.6592 715.633C32.5175 715.956 24.3923 717.941 20.3297 721.588C16.2671 725.235 14.2358 732.668 14.2358 743.794L14.2358 769.416L47.0137 769.416L47.0137 763.369C47.0137 756.674 45.8595 752.289 43.5512 750.211C41.2429 748.134 35.9338 746.841 27.6239 746.333L27.5316 734.238L81.0842 734.238L80.9919 746.333C71.851 746.795 65.9418 748.041 63.2641 750.165C60.5865 752.243 59.2477 756.582 59.2477 763.23L59.2477 769.416L96.8268 769.416L96.8268 741.44C96.8268 732.114 94.657 725.697 90.3174 722.188C85.9778 718.726 77.1139 716.51 63.7258 715.587L63.7258 703.491L108.922 703.491L108.922 808.519L108.969 808.565ZM46.4135 649.292L46.4135 630.456C46.4135 622.885 45.1209 617.345 42.5817 613.837C40.0426 610.328 35.9338 608.574 30.3477 608.574C24.577 608.574 20.4682 610.236 18.0214 613.606C15.5284 616.976 14.282 622.793 14.282 631.01L14.282 649.292L46.4135 649.292ZM86.9473 649.292C91.2869 649.292 93.9645 648.692 95.1187 647.538C96.2728 646.384 96.8268 643.383 96.8268 638.628L96.8268 631.149L108.922 631.149L108.922 688.441L96.8268 688.441L96.8268 682.255C96.8268 677.546 96.2728 674.591 95.1649 673.437C94.0569 672.283 91.3331 671.729 86.9473 671.729L24.1153 671.729C19.7757 671.729 17.0519 672.283 15.8978 673.437C14.7898 674.591 14.2358 677.5 14.2358 682.255L14.2358 688.441L2.14029 688.441L2.14029 624.64C2.14029 611.251 4.21776 601.372 8.41887 594.862C12.62 588.399 19.0832 585.168 27.7624 585.168C35.426 585.168 41.5661 587.753 46.1365 592.923C50.707 598.048 53.6154 605.665 54.8157 615.776C55.9699 608.158 58.0935 602.803 61.279 599.756C64.5106 596.709 70.0044 594.955 77.8988 594.447L87.4551 593.755C91.1946 593.477 93.5952 593.016 94.7494 592.37C95.9035 591.723 96.4575 590.569 96.4575 589.046C96.4575 585.952 90.6406 584.337 78.9606 584.106C78.7297 584.106 78.5912 584.106 78.4989 584.106L78.4989 573.995C79.1452 573.903 79.8839 573.811 80.6226 573.765C81.3612 573.718 82.4692 573.718 83.8542 573.718C93.6414 573.718 100.797 575.473 105.275 579.028C109.799 582.536 112.062 588.168 112.062 595.832C112.062 602.157 110.353 607.096 106.845 610.697C103.382 614.252 98.5811 616.145 92.3949 616.33L79.8839 616.791C71.574 617.114 65.8956 618.961 62.8948 622.331C59.894 625.748 58.4167 632.165 58.4167 641.629L58.4167 649.246L86.855 649.246L86.9473 649.292ZM108.922 562.085L64.8338 562.085L64.8338 549.666C75.452 547.958 83.5772 544.034 89.1633 537.847C94.7955 531.707 97.6117 523.674 97.6117 513.841C97.6117 506.732 96.4113 501.284 94.0107 497.544C91.6101 493.759 88.1938 491.912 83.6695 491.912C79.6069 491.912 76.3291 493.343 73.79 496.252C71.2508 499.114 69.2657 503.731 67.7884 510.055L63.7719 527.414C60.8635 539.833 56.9394 548.789 51.9996 554.236C47.0598 559.684 40.4119 562.454 32.1482 562.454C22.084 562.454 14.0511 558.945 8.00337 551.928C1.90945 544.957 -1.09134 535.585 -1.09134 523.859C-1.09134 518.088 -0.16802 512.641 1.58629 507.562C3.38676 502.53 6.11056 497.637 9.85001 492.836L2.09411 487.249L2.09411 477.739L42.5356 477.739L42.5356 489.789C32.8407 491.635 25.3156 495.421 20.0065 501.284C14.6974 507.101 11.9736 514.441 11.9736 523.259C11.9736 529.676 13.174 534.662 15.5746 538.171C17.9752 541.679 21.3454 543.433 25.6388 543.433C29.2859 543.433 32.1482 542.187 34.318 539.694C36.4878 537.201 38.196 533.231 39.4424 527.737L44.3822 506.177C46.9675 494.774 51.0301 486.234 56.57 480.601C62.11 474.969 69.1272 472.153 77.6679 472.153C87.7783 472.153 96.042 475.846 102.413 483.279C108.784 490.712 112.015 500.314 112.015 512.133C112.015 518.088 110.907 523.998 108.738 529.861C106.568 535.724 103.198 541.633 98.7658 547.681L108.83 551.189L108.83 562.131L108.922 562.085ZM72.3588 374.604L86.9935 374.604C91.3331 374.604 94.0569 374.004 95.211 372.896C96.319 371.742 96.873 368.834 96.873 364.078L96.873 359.785L108.968 359.785L108.968 413.291L96.873 413.291L96.873 407.105C96.873 402.396 96.319 399.442 95.211 398.287C94.103 397.133 91.3792 396.579 86.9935 396.579L24.1153 396.579C19.7757 396.579 17.0519 397.133 15.8978 398.287C14.7898 399.442 14.2358 402.35 14.2358 407.105L14.2358 413.291L2.14028 413.291L2.14027 359L14.2358 359L14.2358 364.078C14.2358 368.787 14.7898 371.742 15.8978 372.896C17.0057 374.05 19.7295 374.604 24.1153 374.604L54.2156 374.604L20.4682 338.595C19.4987 337.671 18.6677 337.025 18.0676 336.563C17.4212 336.148 16.8672 335.963 16.3594 335.963C15.6208 335.963 15.1129 336.471 14.7898 337.487C14.4666 338.502 14.2819 340.072 14.2819 342.242L14.2819 349.305L2.18644 349.305L2.18644 295.522L14.2819 295.522L14.2819 299.169C14.2819 303.37 15.3438 307.479 17.4212 311.541C19.4987 315.604 23.192 320.498 28.5011 326.268L42.8126 341.78L88.7939 309.418C92.0717 307.063 94.2415 304.94 95.3033 303.047C96.3652 301.154 96.873 298.153 96.873 294.091L96.873 288.643L108.968 288.643L108.968 347.966L96.873 347.966L96.873 339.426C96.873 336.656 96.6422 334.855 96.2728 334.024C95.8573 333.193 95.1187 332.778 94.0107 332.778C93.3182 332.778 92.6257 332.916 91.8409 333.239C91.0561 333.563 89.9942 334.163 88.6093 335.132L57.0779 357.107L72.405 374.65L72.3588 374.604ZM86.9934 228.027C91.2869 228.027 94.0107 227.427 95.1648 226.273C96.319 225.119 96.873 222.118 96.873 217.409L96.873 208.13L108.968 208.13L108.968 270.177L96.873 270.177L96.873 260.897C96.873 256.188 96.319 253.28 95.211 252.126C94.103 250.972 91.3792 250.418 86.9934 250.418L64.3259 250.418L25.3156 276.825C21.1607 279.641 18.2984 282.134 16.6826 284.442C15.0668 286.704 14.2819 289.336 14.2819 292.244L14.2819 297.507L2.18644 297.507L2.18644 241L14.2819 241L14.2819 248.756C14.2819 251.202 14.5589 252.957 15.1129 254.065C15.6669 255.173 16.4979 255.727 17.6521 255.727C18.3445 255.727 19.1755 255.542 20.0065 255.173C20.8837 254.803 21.8532 254.249 22.915 253.511L47.937 235.506L21.9917 216.439C20.8837 215.655 20.0065 215.101 19.314 214.824C18.6215 214.5 17.9291 214.362 17.1442 214.362C16.2209 214.362 15.4823 214.87 15.0206 215.839C14.5128 216.809 14.2819 218.24 14.2819 220.133L14.2819 229.504L2.18644 229.504L2.18643 179.968L14.2819 179.968L14.2819 183.615C14.2819 186.431 14.7436 188.694 15.7131 190.448C16.6826 192.156 18.5292 194.049 21.3453 195.988L64.3259 227.889L86.9934 227.889L86.9934 228.027ZM108.968 176.968L96.873 176.968L96.873 170.135C96.873 165.426 96.319 162.471 95.211 161.317C94.103 160.163 91.3792 159.609 86.9934 159.609L24.1153 159.609C19.7757 159.609 17.0519 160.163 15.8977 161.317C14.7898 162.471 14.2358 165.38 14.2358 170.135L14.2358 176.968L2.14027 176.968L2.14026 119.352L14.2358 119.352L14.2358 126.185C14.2358 130.94 14.7898 133.895 15.8977 135.002C17.0057 136.157 19.7295 136.711 24.1153 136.711L86.9934 136.711C91.3331 136.711 94.0569 136.157 95.211 135.002C96.319 133.848 96.873 130.94 96.873 126.185L96.873 119.352L108.968 119.352L108.968 176.968ZM108.968 70.4624L24.5308 100.378C20.5605 101.763 17.8829 103.379 16.4517 105.133C14.9744 106.887 14.2819 109.427 14.2819 112.658L14.2819 117.275L2.18643 117.275L2.18643 61.46L14.2819 61.46L14.2819 69.7238C14.2819 72.7246 14.6513 74.8481 15.3899 76.187C16.1747 77.5258 17.3289 78.1721 18.9447 78.1721C19.868 78.1721 21.0222 77.9874 22.361 77.6643C23.6998 77.3411 25.2694 76.8333 27.0238 76.2332L82.423 56.428L25.7773 35.2838C24.577 34.776 23.2843 34.3606 21.9917 34.0836C20.7452 33.8066 19.6372 33.6681 18.76 33.6681C17.0519 33.6681 15.8516 34.3145 15.2514 35.6532C14.6051 36.9921 14.2819 39.6696 14.2819 43.686L14.2819 50.7495L2.18643 50.7495L2.18643 -0.0332033L14.2819 -0.0332038L14.2819 3.15222C14.2819 6.93787 14.9283 9.75415 16.2671 11.6007C17.5597 13.4474 20.422 15.2015 24.8539 16.8174L108.968 48.3489L108.968 70.4624Z" fill="white" fill-opacity="0.31"/>
</g>
<defs>
<clipPath id="clip0">
<rect width="1255" height="113.153" fill="white" transform="translate(-1 1255) rotate(-90)"/>
</clipPath>
</defs>
</svg>
