<svg width="26" height="26" viewBox="0 0 26 26" fill="none" xmlns="http://www.w3.org/2000/svg">
<path d="M13 26C20.1797 26 26 20.1797 26 13C26 5.8203 20.1797 0 13 0C5.8203 0 0 5.8203 0 13C0 20.1797 5.8203 26 13 26Z" fill="#039BE5"/>
<path d="M5.94911 12.7184L18.4833 7.88562C19.065 7.67546 19.5731 8.02754 19.3846 8.90721L19.3857 8.90613L17.2515 18.9605C17.0934 19.6734 16.6698 19.8467 16.0772 19.5109L12.8272 17.1156L11.2596 18.6258C11.0863 18.7991 10.94 18.9454 10.6042 18.9454L10.8349 15.638L16.8583 10.1964C17.1204 9.96563 16.7998 9.83563 16.4542 10.0653L9.01061 14.7518L5.80178 13.7508C5.1052 13.5298 5.09003 13.0542 5.94911 12.7184Z" fill="white"/>
</svg>
