<svg width="366" height="178" viewBox="0 0 366 178" fill="none" xmlns="http://www.w3.org/2000/svg">
<g clip-path="url(#clip0)">
<path fill-rule="evenodd" clip-rule="evenodd" d="M0.280273 105.38H365.998V150.014H0.280273V105.38Z" fill="white"/>
<path d="M83.527 0H133.548V13.1577H125.758C123.811 13.1577 122.259 13.2665 121.102 13.4839C120.133 13.6718 119.501 13.8991 119.214 14.1858C118.927 14.4626 118.69 15.036 118.512 15.9059C118.285 16.9538 118.176 18.3477 118.176 20.0776V80.2809H133.617C136.583 80.2809 139.163 80.1524 141.348 79.9053C143.503 79.6581 145.272 79.2924 146.656 78.8178C147.991 78.3532 149.128 77.7403 150.067 76.989C150.986 76.2476 151.738 75.3579 152.311 74.3199C152.914 73.2127 153.438 72.0067 153.883 70.682C154.338 69.3277 154.703 67.8547 155 66.2631C155.296 64.6518 155.514 62.8526 155.672 60.8656C155.82 58.9181 155.899 56.8026 155.899 54.5092V51.415H169.186V93.4386H82.1035V80.2908H88.8158C92.4241 80.2908 94.589 79.9547 95.2711 79.2923C95.538 79.0254 95.7654 78.462 95.9433 77.592C96.1608 76.5442 96.2696 75.1404 96.2696 73.3808V20.0875C96.2696 18.3279 96.1608 16.9241 95.9433 15.8763C95.7654 15.0063 95.538 14.4429 95.2711 14.1759C94.9943 13.909 94.3814 13.6817 93.4225 13.5037C92.2758 13.2862 90.7435 13.1775 88.8158 13.1775H82.1035V0.0197712H83.5567L83.527 0ZM130.642 2.89648H84.9703V10.2514H88.7862C90.8622 10.2514 92.5822 10.3799 93.9267 10.6369C95.459 10.9236 96.576 11.408 97.2581 12.0802C97.9501 12.7623 98.4543 13.8201 98.7509 15.2732C99.0079 16.5386 99.1463 18.1401 99.1463 20.0678V73.361C99.1463 75.2887 99.0178 76.8803 98.7509 78.1555C98.4543 79.6087 97.96 80.6664 97.2581 81.3485C96.0125 82.5645 93.1754 83.1774 88.7862 83.1774H84.9703V90.5323H166.25V54.3115H158.766V54.4993C158.766 56.8323 158.687 59.0269 158.529 61.0633C158.371 63.0997 158.134 64.9978 157.817 66.7574C157.501 68.4874 157.096 70.0987 156.601 71.5717C156.097 73.0842 155.504 74.4583 154.832 75.694C154.081 77.0582 153.092 78.2445 151.866 79.2231C150.67 80.1919 149.237 80.963 147.576 81.5364C145.974 82.09 143.997 82.5052 141.654 82.7721C139.341 83.039 136.652 83.1675 133.598 83.1675H115.26V20.0678C115.26 18.15 115.398 16.5584 115.665 15.3029C115.972 13.8596 116.476 12.8018 117.187 12.1099C117.889 11.4277 119.016 10.9335 120.558 10.6468C121.913 10.3898 123.653 10.2612 125.748 10.2612H130.642V2.90636V2.89648ZM211.358 61.6169V73.3511C211.358 75.1009 211.466 76.5046 211.694 77.5624C211.882 78.4323 212.109 78.9958 212.376 79.2627C212.653 79.5296 213.266 79.757 214.224 79.9448C215.371 80.1623 216.903 80.271 218.831 80.271H223.922V93.4189H175.671V80.271H182.383C185.991 80.271 188.156 79.9349 188.838 79.2726C189.105 79.0057 189.333 78.4422 189.51 77.5723C189.728 76.5244 189.837 75.1206 189.837 73.361V20.0678C189.837 18.3081 189.728 16.9044 189.51 15.8565C189.333 14.9866 189.105 14.4231 188.838 14.1562C188.561 13.8893 187.949 13.6619 186.99 13.4839C185.843 13.2665 184.311 13.1577 182.383 13.1577H175.671V0.00988559H224.575V13.1577H218.831C215.213 13.1577 213.058 13.4938 212.376 14.1562C212.099 14.4231 211.872 14.9964 211.684 15.8664C211.466 16.9142 211.348 18.318 211.348 20.0678V42.2214L239.413 15.9356C239.759 15.5599 240.065 15.2238 240.322 14.9174C240.57 14.6208 240.767 14.3737 240.916 14.1661C241.034 13.9683 241.123 13.8102 241.173 13.6817L241.192 13.6026C241.123 13.563 241.034 13.5334 240.916 13.4938C240.589 13.3851 240.144 13.2961 239.581 13.2368C238.978 13.1775 238.227 13.1478 237.337 13.1478H229.903V0H278.402V13.1478H273.844C272.174 13.1478 270.533 13.3554 268.921 13.7706C267.29 14.1858 265.659 14.8185 264.028 15.6588H264.018C262.367 16.5089 260.538 17.6853 258.522 19.2077C256.495 20.7301 254.281 22.5985 251.869 24.8128L239.65 36.0725L266.351 74.0233C267.29 75.3381 268.19 76.4354 269.03 77.2955C269.831 78.116 270.582 78.719 271.264 79.1045C271.927 79.4703 272.816 79.757 273.924 79.9547C275.1 80.1623 276.514 80.271 278.145 80.271H284.205V93.4189H231.03V80.271H239.719C240.856 80.271 241.766 80.2315 242.458 80.1524C243.061 80.0832 243.466 80.0041 243.674 79.9053C243.753 79.8657 243.802 79.8163 243.832 79.7669C243.881 79.668 243.911 79.5197 243.911 79.2923C243.911 79.0946 243.891 78.887 243.842 78.6893C243.792 78.462 243.723 78.2148 243.624 77.9578C243.515 77.681 243.347 77.3449 243.12 76.9692C242.893 76.5738 242.586 76.1092 242.201 75.5655L224.496 50.1496L211.348 61.6268L211.358 61.6169ZM208.461 73.3511V60.312L225.039 45.8395L244.583 73.8948C244.988 74.4682 245.334 75.002 245.621 75.4963C245.937 76.0301 246.165 76.4947 246.333 76.9L246.343 76.9297C246.491 77.3251 246.61 77.7107 246.689 78.0962C246.778 78.5114 246.817 78.9068 246.817 79.2825C246.817 79.9843 246.669 80.6071 246.382 81.141C246.066 81.7143 245.591 82.1592 244.959 82.4755L244.939 82.4854C244.445 82.7226 243.723 82.9006 242.784 83.0093C241.954 83.0983 240.935 83.1477 239.729 83.1477H233.936V90.5026H281.308V83.1477H278.145C276.355 83.1477 274.774 83.0291 273.429 82.782C272.016 82.5348 270.819 82.1394 269.87 81.6056C268.941 81.0915 267.972 80.3204 266.974 79.3022C266.025 78.3236 265.027 77.1175 263.998 75.6742C256.416 67.5087 243.09 45.9581 235.834 35.6475L249.921 22.6677C252.383 20.4138 254.676 18.4762 256.802 16.8747C258.937 15.2634 260.904 13.998 262.713 13.0688C264.522 12.1296 266.351 11.4277 268.21 10.9532C270.088 10.4688 271.966 10.2316 273.844 10.2316H275.495V2.87671H232.799V10.2316H237.327C238.276 10.2316 239.116 10.2711 239.868 10.3502C240.659 10.4293 241.311 10.5578 241.835 10.7456C242.487 10.973 243.001 11.2795 243.377 11.6749C243.861 12.1791 244.099 12.7821 244.099 13.4642C244.099 13.8497 244.02 14.2451 243.881 14.6504C243.753 15.0063 243.585 15.3523 243.367 15.6884L243.318 15.7478C243.1 16.0641 242.833 16.4101 242.527 16.7759C242.23 17.1218 241.884 17.5074 241.479 17.9424C231.02 28.4013 219.316 38.712 208.441 48.8941V20.0579C208.441 18.1302 208.58 16.5287 208.847 15.2732C209.153 13.8201 209.657 12.7524 210.349 12.0802C211.595 10.8643 214.432 10.2514 218.821 10.2514H221.668V2.89648H178.567V10.2514H182.383C184.459 10.2514 186.179 10.3799 187.523 10.6369C189.056 10.9236 190.173 11.408 190.855 12.0802C191.547 12.7623 192.051 13.8201 192.348 15.2732C192.605 16.5386 192.743 18.1401 192.743 20.0678V73.361C192.743 75.2887 192.615 76.8803 192.348 78.1555C192.051 79.6087 191.557 80.6664 190.855 81.3485C189.609 82.5645 186.772 83.1774 182.383 83.1774H178.567V90.5323H221.016V83.1774H218.821C216.745 83.1774 215.025 83.0489 213.681 82.7918C212.148 82.5052 211.031 82.0208 210.349 81.3485C209.657 80.6664 209.153 79.6087 208.847 78.1654C208.58 76.9 208.441 75.2986 208.441 73.3709L208.461 73.3511Z" fill="white"/>
<path fill-rule="evenodd" clip-rule="evenodd" d="M105.986 83.9287C107.667 83.3949 109.456 84.3242 109.99 86.0047C110.524 87.6853 109.595 89.4745 107.914 90.0084C106.234 90.5422 104.444 89.6129 103.91 87.9324C103.377 86.2518 104.306 84.4626 105.986 83.9287Z" fill="white"/>
<path fill-rule="evenodd" clip-rule="evenodd" d="M124.138 85.7279C124.671 87.4084 123.742 89.1977 122.062 89.7315C120.381 90.2653 118.592 89.3361 118.058 87.6555C117.524 85.975 118.453 84.1857 120.134 83.6519C121.814 83.1181 123.604 84.0473 124.138 85.7279Z" fill="white"/>
<path fill-rule="evenodd" clip-rule="evenodd" d="M136.899 85.7279C137.433 87.4084 136.504 89.1977 134.823 89.7315C133.143 90.2653 131.353 89.3361 130.82 87.6555C130.286 85.975 131.215 84.1857 132.896 83.6519C134.576 83.1181 136.365 84.0473 136.899 85.7279Z" fill="white"/>
<path fill-rule="evenodd" clip-rule="evenodd" d="M149.662 85.7279C150.196 87.4084 149.267 89.1977 147.586 89.7315C145.905 90.2653 144.116 89.3361 143.582 87.6555C143.049 85.975 143.978 84.1857 145.658 83.6519C147.339 83.1181 149.128 84.0473 149.662 85.7279Z" fill="white"/>
<path fill-rule="evenodd" clip-rule="evenodd" d="M162.425 85.7279C162.959 87.4084 162.029 89.1977 160.349 89.7315C158.668 90.2653 156.879 89.3361 156.345 87.6555C155.811 85.975 156.74 84.1857 158.421 83.6519C160.102 83.1181 161.891 84.0473 162.425 85.7279Z" fill="white"/>
<path fill-rule="evenodd" clip-rule="evenodd" d="M105.986 71.0873C107.667 70.5535 109.456 71.4828 109.99 73.1633C110.524 74.8439 109.595 76.6331 107.914 77.167C106.234 77.7008 104.444 76.7715 103.91 75.091C103.377 73.4104 104.306 71.6212 105.986 71.0873Z" fill="white"/>
<path fill-rule="evenodd" clip-rule="evenodd" d="M105.986 57.3759C107.667 56.8421 109.456 57.7714 109.99 59.4519C110.524 61.1325 109.595 62.9218 107.914 63.4556C106.234 63.9894 104.444 63.0602 103.91 61.3796C103.377 59.699 104.306 57.9098 105.986 57.3759Z" fill="white"/>
<path fill-rule="evenodd" clip-rule="evenodd" d="M105.986 43.6746C107.667 43.1408 109.456 44.07 109.99 45.7506C110.524 47.4311 109.595 49.2204 107.914 49.7542C106.234 50.2881 104.444 49.3588 103.91 47.6783C103.377 45.9977 104.306 44.2084 105.986 43.6746Z" fill="white"/>
<path fill-rule="evenodd" clip-rule="evenodd" d="M105.986 29.9632C107.667 29.4294 109.456 30.3586 109.99 32.0392C110.524 33.7197 109.595 35.509 107.914 36.0429C106.234 36.5767 104.444 35.6474 103.91 33.9669C103.377 32.2863 104.306 30.497 105.986 29.9632Z" fill="white"/>
<path fill-rule="evenodd" clip-rule="evenodd" d="M105.986 16.2618C107.667 15.7279 109.456 16.6572 109.99 18.3377C110.524 20.0183 109.595 21.8076 107.914 22.3414C106.234 22.8752 104.444 21.946 103.91 20.2654C103.377 18.5849 104.306 16.7956 105.986 16.2618Z" fill="white"/>
<path fill-rule="evenodd" clip-rule="evenodd" d="M105.986 3.67745C107.667 3.14363 109.456 4.07287 109.99 5.75343C110.524 7.43398 109.595 9.22327 107.914 9.75709C106.234 10.2909 104.444 9.36167 103.91 7.68112C103.377 6.00057 104.306 4.21127 105.986 3.67745Z" fill="white"/>
<path fill-rule="evenodd" clip-rule="evenodd" d="M95.6561 85.7279C96.19 87.4084 95.2607 89.1977 93.5802 89.7315C91.8996 90.2653 90.1103 89.3361 89.5765 87.6555C89.0427 85.975 89.9719 84.1857 91.6525 83.6519C93.333 83.1181 95.1223 84.0473 95.6561 85.7279Z" fill="white"/>
<path fill-rule="evenodd" clip-rule="evenodd" d="M124.138 5.74351C124.671 7.42406 123.742 9.21335 122.062 9.74717C120.381 10.281 118.592 9.35175 118.058 7.6712C117.524 5.99065 118.453 4.20135 120.134 3.66753C121.814 3.13371 123.604 4.06296 124.138 5.74351Z" fill="white"/>
<path fill-rule="evenodd" clip-rule="evenodd" d="M95.6561 5.74351C96.19 7.42406 95.2607 9.21335 93.5802 9.74717C91.8996 10.281 90.1103 9.35175 89.5765 7.6712C89.0427 5.99065 89.9719 4.20135 91.6525 3.66753C93.333 3.13371 95.1223 4.06296 95.6561 5.74351Z" fill="white"/>
<path fill-rule="evenodd" clip-rule="evenodd" d="M199.494 83.9287C201.175 83.3949 202.964 84.3242 203.498 86.0047C204.032 87.6853 203.102 89.4745 201.422 90.0084C199.741 90.5422 197.952 89.6129 197.418 87.9324C196.884 86.2518 197.814 84.4626 199.494 83.9287Z" fill="white"/>
<path fill-rule="evenodd" clip-rule="evenodd" d="M217.654 86.0047C218.188 87.6853 217.259 89.4745 215.578 90.0084C213.898 90.5422 212.108 89.6129 211.575 87.9324C211.041 86.2518 211.97 84.4626 213.651 83.9287C215.331 83.3949 217.12 84.3242 217.654 86.0047Z" fill="white"/>
<path fill-rule="evenodd" clip-rule="evenodd" d="M199.494 71.0873C201.175 70.5535 202.964 71.4828 203.498 73.1633C204.032 74.8439 203.102 76.6331 201.422 77.167C199.741 77.7008 197.952 76.7715 197.418 75.091C196.884 73.4104 197.814 71.6212 199.494 71.0873Z" fill="white"/>
<path fill-rule="evenodd" clip-rule="evenodd" d="M199.494 57.3759C201.175 56.8421 202.964 57.7714 203.498 59.4519C204.032 61.1325 203.102 62.9218 201.422 63.4556C199.741 63.9894 197.952 63.0602 197.418 61.3796C196.884 59.699 197.814 57.9098 199.494 57.3759Z" fill="white"/>
<path fill-rule="evenodd" clip-rule="evenodd" d="M199.494 43.6746C201.175 43.1408 202.964 44.07 203.498 45.7506C204.032 47.4311 203.102 49.2204 201.422 49.7542C199.741 50.2881 197.952 49.3588 197.418 47.6783C196.884 45.9977 197.814 44.2084 199.494 43.6746Z" fill="white"/>
<path fill-rule="evenodd" clip-rule="evenodd" d="M199.494 29.9632C201.175 29.4294 202.964 30.3586 203.498 32.0392C204.032 33.7197 203.102 35.509 201.422 36.0429C199.741 36.5767 197.952 35.6474 197.418 33.9669C196.884 32.2863 197.814 30.497 199.494 29.9632Z" fill="white"/>
<path fill-rule="evenodd" clip-rule="evenodd" d="M199.494 16.2618C201.175 15.7279 202.964 16.6572 203.498 18.3377C204.032 20.0183 203.102 21.8076 201.422 22.3414C199.741 22.8752 197.952 21.946 197.418 20.2654C196.884 18.5849 197.814 16.7956 199.494 16.2618Z" fill="white"/>
<path fill-rule="evenodd" clip-rule="evenodd" d="M199.494 3.67745C201.175 3.14363 202.964 4.07287 203.498 5.75343C204.032 7.43398 203.102 9.22327 201.422 9.75709C199.741 10.2909 197.952 9.36167 197.418 7.68112C196.884 6.00057 197.814 4.21127 199.494 3.67745Z" fill="white"/>
<path fill-rule="evenodd" clip-rule="evenodd" d="M211.071 51.1382C212.603 51.9982 213.156 53.9457 212.296 55.478C211.436 57.0102 209.489 57.5638 207.957 56.7038C206.424 55.8437 205.871 53.8963 206.731 52.364C207.591 50.8317 209.538 50.2782 211.071 51.1382Z" fill="white"/>
<path fill-rule="evenodd" clip-rule="evenodd" d="M221.075 41.7765C222.607 42.6366 223.16 44.584 222.3 46.1163C221.44 47.6486 219.493 48.2021 217.961 47.3421C216.428 46.4821 215.875 44.5346 216.735 43.0023C217.595 41.4701 219.542 40.9165 221.075 41.7765Z" fill="white"/>
<path fill-rule="evenodd" clip-rule="evenodd" d="M231.078 32.405C232.611 33.265 233.164 35.2125 232.304 36.7448C231.444 38.277 229.497 38.8306 227.964 37.9706C226.432 37.1105 225.879 35.1631 226.739 33.6308C227.599 32.0985 229.546 31.5449 231.078 32.405Z" fill="white"/>
<path fill-rule="evenodd" clip-rule="evenodd" d="M241.084 23.0334C242.617 23.8935 243.17 25.8409 242.31 27.3732C241.45 28.9055 239.503 29.4591 237.97 28.599C236.438 27.739 235.884 25.7915 236.744 24.2593C237.605 22.727 239.552 22.1734 241.084 23.0334Z" fill="white"/>
<path fill-rule="evenodd" clip-rule="evenodd" d="M250.267 14.433C251.799 15.293 252.353 17.2405 251.493 18.7728C250.633 20.305 248.685 20.8586 247.153 19.9986C245.621 19.1385 245.067 17.1911 245.927 15.6588C246.787 14.1265 248.735 13.573 250.267 14.433Z" fill="white"/>
<path fill-rule="evenodd" clip-rule="evenodd" d="M236.14 45.9384C235.033 47.3125 233.026 47.53 231.652 46.4228C230.278 45.3156 230.061 43.3088 231.168 41.9347C232.275 40.5606 234.282 40.3431 235.656 41.4503C237.03 42.5575 237.247 44.5643 236.14 45.9384Z" fill="white"/>
<path fill-rule="evenodd" clip-rule="evenodd" d="M243.733 57.3562C242.626 58.7303 240.619 58.9478 239.245 57.8406C237.871 56.7334 237.653 54.7266 238.761 53.3525C239.868 51.9785 241.875 51.761 243.249 52.8682C244.623 53.9753 244.84 55.9821 243.733 57.3562Z" fill="white"/>
<path fill-rule="evenodd" clip-rule="evenodd" d="M251.315 68.7642C250.208 70.1383 248.201 70.3558 246.827 69.2486C245.453 68.1414 245.235 66.1346 246.343 64.7605C247.45 63.3864 249.457 63.169 250.831 64.2761C252.205 65.3833 252.422 67.3901 251.315 68.7642Z" fill="white"/>
<path fill-rule="evenodd" clip-rule="evenodd" d="M258.285 79.2528C257.178 80.6269 255.171 80.8443 253.797 79.7372C252.423 78.63 252.205 76.6232 253.312 75.2491C254.42 73.875 256.426 73.6575 257.8 74.7647C259.174 75.8719 259.392 77.8787 258.285 79.2528Z" fill="white"/>
<path fill-rule="evenodd" clip-rule="evenodd" d="M189.175 86.0047C189.709 87.6853 188.779 89.4745 187.099 90.0084C185.418 90.5422 183.629 89.6129 183.095 87.9324C182.561 86.2518 183.49 84.4626 185.171 83.9287C186.852 83.3949 188.641 84.3242 189.175 86.0047Z" fill="white"/>
<path fill-rule="evenodd" clip-rule="evenodd" d="M217.654 5.74351C218.188 7.42406 217.259 9.21335 215.578 9.74717C213.898 10.281 212.108 9.35175 211.575 7.6712C211.041 5.99065 211.97 4.20135 213.651 3.66753C215.331 3.13371 217.12 4.06296 217.654 5.74351Z" fill="white"/>
<path fill-rule="evenodd" clip-rule="evenodd" d="M189.175 5.74351C189.709 7.42406 188.779 9.21335 187.099 9.74717C185.418 10.281 183.629 9.35175 183.095 7.6712C182.561 5.99065 183.49 4.20135 185.171 3.66753C186.852 3.13371 188.641 4.06296 189.175 5.74351Z" fill="white"/>
<path fill-rule="evenodd" clip-rule="evenodd" d="M256.119 83.9287C257.8 83.3949 259.589 84.3242 260.123 86.0047C260.657 87.6853 259.727 89.4745 258.047 90.0084C256.366 90.5422 254.577 89.6129 254.043 87.9324C253.509 86.2518 254.439 84.4626 256.119 83.9287Z" fill="white"/>
<path fill-rule="evenodd" clip-rule="evenodd" d="M274.269 86.0047C274.802 87.6853 273.873 89.4745 272.193 90.0084C270.512 90.5422 268.723 89.6129 268.189 87.9324C267.655 86.2518 268.584 84.4626 270.265 83.9287C271.945 83.3949 273.735 84.3242 274.269 86.0047Z" fill="white"/>
<path fill-rule="evenodd" clip-rule="evenodd" d="M245.799 86.0047C246.333 87.6853 245.403 89.4745 243.723 90.0084C242.042 90.5422 240.253 89.6129 239.719 87.9324C239.185 86.2518 240.114 84.4626 241.795 83.9287C243.476 83.3949 245.265 84.3242 245.799 86.0047Z" fill="white"/>
<path fill-rule="evenodd" clip-rule="evenodd" d="M253.461 3.67745C255.142 3.14363 256.931 4.07287 257.465 5.75343C257.999 7.43398 257.069 9.22327 255.389 9.75709C253.708 10.2909 251.919 9.36167 251.385 7.68112C250.851 6.00057 251.781 4.21127 253.461 3.67745Z" fill="white"/>
<path fill-rule="evenodd" clip-rule="evenodd" d="M271.61 5.74351C272.144 7.42406 271.215 9.21335 269.534 9.74717C267.854 10.281 266.064 9.35175 265.531 7.6712C264.997 5.99065 265.926 4.20135 267.607 3.66753C269.287 3.13371 271.076 4.06296 271.61 5.74351Z" fill="white"/>
<path fill-rule="evenodd" clip-rule="evenodd" d="M243.129 5.74351C243.663 7.42406 242.733 9.21335 241.053 9.74717C239.372 10.281 237.583 9.35175 237.049 7.6712C236.515 5.99065 237.445 4.20135 239.125 3.66753C240.806 3.13371 242.595 4.06296 243.129 5.74351Z" fill="white"/>
<path fill-rule="evenodd" clip-rule="evenodd" d="M160.11 71.0873C161.791 70.5535 163.58 71.4828 164.114 73.1633C164.648 74.8439 163.719 76.6331 162.038 77.167C160.358 77.7008 158.568 76.7715 158.035 75.091C157.501 73.4104 158.43 71.6212 160.11 71.0873Z" fill="white"/>
<path fill-rule="evenodd" clip-rule="evenodd" d="M161.277 57.3759C162.958 56.8421 164.747 57.7714 165.281 59.4519C165.815 61.1325 164.886 62.9218 163.205 63.4556C161.525 63.9894 159.735 63.0602 159.201 61.3796C158.668 59.699 159.597 57.9098 161.277 57.3759Z" fill="white"/>
<path d="M63.0546 172.612L62.412 171.782C62.3033 171.673 62.2242 171.624 62.1451 171.624C62.0364 171.624 61.9573 171.703 61.8485 171.782C60.9885 172.474 60.1581 172.8 59.4068 172.8C57.4198 172.8 56.194 170.872 56.194 166.641C56.194 162.648 57.1825 161.175 59.1399 161.175C60.1878 161.175 60.9094 161.659 61.7101 162.193C61.7892 162.242 61.898 162.302 62.0067 162.302C62.0858 162.302 62.1451 162.272 62.2242 162.193L62.9458 161.333C62.9953 161.254 63.0249 161.175 63.0249 161.096C63.0249 160.957 62.9458 160.858 62.8074 160.75C61.8387 159.949 60.4448 159.435 59.1399 159.435C55.7392 159.435 53.9697 162.035 53.9697 166.859C53.9697 171.812 55.7887 174.55 59.2981 174.55C60.6128 174.55 61.8387 174.125 62.7778 173.314C62.936 173.205 63.1238 173.018 63.1238 172.83C63.1238 172.751 63.0941 172.691 63.0447 172.612H63.0546ZM75.3523 170.2C75.3523 168.46 74.4131 167.096 72.6436 166.641C74.0078 165.969 74.7295 164.793 74.7295 163.241C74.7295 161.125 73.6618 159.731 70.014 159.731H66.2081C65.9115 159.731 65.8028 159.81 65.8028 160.107V173.907C65.8028 174.204 65.9115 174.253 66.2081 174.253H69.589C73.128 174.253 75.3523 173.265 75.3523 170.21V170.2ZM72.4854 163.448C72.4854 165.267 71.6056 165.989 69.5099 165.989H67.8788V161.432H69.9448C71.8231 161.432 72.4854 161.857 72.4854 163.438V163.448ZM73.128 170.151C73.128 171.841 72.0801 172.533 70.103 172.533H67.8788V167.709H69.9646C71.9714 167.709 73.128 168.51 73.128 170.151ZM86.6317 173.897V172.8C86.6317 172.474 86.5526 172.424 86.2264 172.424H80.7893V167.571H85.2379C85.5344 167.571 85.6432 167.492 85.6432 167.195V166.226C85.6432 165.93 85.5344 165.821 85.2379 165.821H80.7893V161.531H85.831C86.0188 161.531 86.2066 161.451 86.2561 161.234L86.6021 160.107C86.6317 160.028 86.6515 159.949 86.6515 159.89C86.6515 159.731 86.5131 159.702 86.2462 159.702H79.1187C78.8221 159.702 78.7134 159.781 78.7134 160.077V173.878C78.7134 174.204 78.7924 174.224 79.1187 174.224H86.2165C86.5428 174.224 86.6218 174.174 86.6218 173.878L86.6317 173.897ZM97.7827 160.176C97.8123 160.097 97.8321 160.018 97.8321 159.939C97.8321 159.801 97.753 159.722 97.5059 159.722H88.3716C88.075 159.722 87.9663 159.801 87.9663 160.097V161.145C87.9663 161.442 88.075 161.521 88.3716 161.521H91.6635V173.897C91.6635 174.194 91.7722 174.243 92.0886 174.243H93.344C93.6703 174.243 93.7197 174.194 93.7197 173.897V161.521H97.0116C97.1994 161.521 97.3576 161.442 97.4169 161.254L97.7629 160.186L97.7827 160.176ZM106.383 167.808V173.868C106.383 174.105 106.383 174.243 106.729 174.243H108.093C108.311 174.243 108.439 174.243 108.439 173.917V160.038C108.439 159.85 108.41 159.712 108.143 159.712H104.495C102.617 159.712 99.3545 160.245 99.3545 163.676C99.3545 165.495 100.531 166.701 102.192 167.106C101.786 167.324 101.015 167.857 100.561 169.518L100.155 170.961C99.918 171.821 99.5127 172.513 98.445 172.701L98.1484 172.751C97.931 172.78 97.8815 172.909 97.8815 173.047C97.8815 173.097 97.9112 173.186 97.9112 173.205L98.2078 174.273C98.2572 174.461 98.3462 174.51 98.6131 174.51C99.6609 174.51 101.45 174.164 102.043 171.94L102.577 169.933C103.19 167.6 104.02 167.788 104.96 167.788H106.383V167.808ZM106.383 166.098H104.91C103.595 166.098 101.618 166.048 101.618 163.745C101.618 161.817 103.358 161.442 104.643 161.442H106.383V166.108V166.098ZM114.796 172.504V159.969C114.796 159.781 114.746 159.731 114.559 159.731H112.977C112.789 159.731 112.74 159.781 112.74 159.969V174.006C112.74 174.194 112.789 174.243 112.977 174.243H126.481V177.723C126.481 177.911 126.51 177.99 126.718 177.99H128.082C128.319 177.99 128.349 177.911 128.349 177.693V173.027C128.349 172.731 128.319 172.494 127.924 172.494H126.856V159.959C126.856 159.771 126.807 159.722 126.619 159.722H125.037C124.849 159.722 124.8 159.771 124.8 159.959V172.494H120.836V159.959C120.836 159.771 120.786 159.722 120.599 159.722H119.017C118.829 159.722 118.78 159.771 118.78 159.959V172.494H114.816L114.796 172.504ZM139.015 159.722C138.798 159.722 138.719 159.801 138.64 159.988L133.895 170.012C133.677 170.437 133.569 170.655 133.302 171.594H133.272C133.46 170.497 133.489 169.933 133.489 169.587V159.969C133.489 159.751 133.41 159.731 133.223 159.731H131.671C131.483 159.731 131.433 159.781 131.433 159.969V173.986C131.433 174.095 131.463 174.253 131.7 174.253H133.44C133.677 174.253 133.707 174.204 133.786 174.036L138.828 163.508C139.015 163.132 139.233 162.628 139.421 161.926H139.45C139.312 162.895 139.233 163.32 139.233 163.913V174.016C139.233 174.253 139.391 174.253 139.5 174.253H141.052C141.289 174.253 141.289 174.065 141.289 174.016V160.028C141.289 159.81 141.26 159.731 141.022 159.731H139.015V159.722ZM153.488 173.897V172.8C153.488 172.474 153.409 172.424 153.083 172.424H147.646V167.571H152.094C152.391 167.571 152.499 167.492 152.499 167.195V166.226C152.499 165.93 152.391 165.821 152.094 165.821H147.646V161.531H152.687C152.875 161.531 153.063 161.451 153.112 161.234L153.458 160.107C153.488 160.028 153.508 159.949 153.508 159.89C153.508 159.731 153.369 159.702 153.102 159.702H145.975C145.678 159.702 145.57 159.781 145.57 160.077V173.878C145.57 174.204 145.649 174.224 145.975 174.224H153.073C153.399 174.224 153.478 174.174 153.478 173.878L153.488 173.897ZM164.876 172.612L164.234 171.782C164.125 171.673 164.046 171.624 163.967 171.624C163.858 171.624 163.779 171.703 163.67 171.782C162.81 172.474 161.98 172.8 161.228 172.8C159.241 172.8 158.016 170.872 158.016 166.641C158.016 162.648 159.004 161.175 160.962 161.175C162.009 161.175 162.731 161.659 163.532 162.193C163.611 162.242 163.72 162.302 163.828 162.302C163.907 162.302 163.967 162.272 164.046 162.193L164.767 161.333C164.817 161.254 164.847 161.175 164.847 161.096C164.847 160.957 164.767 160.858 164.629 160.75C163.66 159.949 162.266 159.435 160.962 159.435C157.561 159.435 155.791 162.035 155.791 166.859C155.791 171.812 157.61 174.55 161.12 174.55C162.434 174.55 163.66 174.125 164.599 173.314C164.758 173.205 164.945 173.018 164.945 172.83C164.945 172.751 164.916 172.691 164.866 172.612H164.876ZM174.356 167.818V173.878C174.356 174.115 174.356 174.253 174.702 174.253H176.067C176.284 174.253 176.413 174.253 176.413 173.927V160.048C176.413 159.86 176.383 159.722 176.116 159.722H172.468C170.59 159.722 167.328 160.255 167.328 163.686C167.328 165.505 168.504 166.711 170.165 167.116C169.76 167.333 168.989 167.867 168.534 169.528L168.129 170.971C167.891 171.831 167.486 172.523 166.418 172.711L166.122 172.761C165.904 172.79 165.855 172.919 165.855 173.057C165.855 173.107 165.885 173.196 165.885 173.215L166.181 174.283C166.231 174.471 166.319 174.52 166.586 174.52C167.634 174.52 169.424 174.174 170.017 171.95L170.551 169.943C171.163 167.61 171.994 167.798 172.933 167.798H174.356V167.818ZM174.356 166.108H172.884C171.569 166.108 169.592 166.058 169.592 163.755C169.592 161.827 171.331 161.451 172.617 161.451H174.356V166.117V166.108ZM195.709 163.646C195.709 161.343 194.741 159.731 190.915 159.731H187.346C187.05 159.731 186.941 159.81 186.941 160.107V173.907C186.941 174.204 187.05 174.253 187.346 174.253H188.631C188.928 174.253 189.007 174.204 189.007 173.907V168.253H190.589C193.801 168.253 195.709 166.701 195.709 163.646ZM193.594 163.696C193.594 165.327 192.951 166.424 190.46 166.424H189.017V161.491H190.757C192.843 161.491 193.594 161.975 193.594 163.686V163.696ZM206.158 173.907V172.81C206.158 172.484 206.079 172.434 205.753 172.434H200.316V167.581H204.765C205.061 167.581 205.17 167.501 205.17 167.205V166.236C205.17 165.94 205.061 165.831 204.765 165.831H200.316V161.54H205.358C205.546 161.54 205.733 161.461 205.783 161.244L206.129 160.117C206.158 160.038 206.178 159.959 206.178 159.899C206.178 159.741 206.04 159.712 205.773 159.712H198.645C198.349 159.712 198.24 159.791 198.24 160.087V173.888C198.24 174.214 198.319 174.234 198.645 174.234H205.743C206.069 174.234 206.149 174.184 206.149 173.888L206.158 173.907ZM217.309 160.186C217.339 160.107 217.359 160.028 217.359 159.949C217.359 159.81 217.28 159.731 217.033 159.731H207.898C207.602 159.731 207.493 159.81 207.493 160.107V161.155C207.493 161.451 207.602 161.531 207.898 161.531H211.19V173.907C211.19 174.204 211.299 174.253 211.615 174.253H212.871C213.197 174.253 213.246 174.204 213.246 173.907V161.531H216.538C216.726 161.531 216.884 161.451 216.944 161.264L217.29 160.196L217.309 160.186ZM227.946 163.646C227.946 161.343 226.978 159.731 223.152 159.731H219.583C219.286 159.731 219.178 159.81 219.178 160.107V173.907C219.178 174.204 219.286 174.253 219.583 174.253H220.868C221.165 174.253 221.244 174.204 221.244 173.907V168.253H222.826C226.038 168.253 227.946 166.701 227.946 163.646ZM225.831 163.696C225.831 165.327 225.188 166.424 222.697 166.424H221.254V161.491H222.994C225.079 161.491 225.831 161.975 225.831 163.686V163.696ZM240.214 166.987C240.214 162.035 238.474 159.435 235.014 159.435C231.426 159.435 229.577 162.084 229.577 167.047C229.577 171.95 231.347 174.55 234.777 174.55C238.336 174.55 240.214 171.871 240.214 166.997V166.987ZM237.99 167.037C237.99 171.298 236.893 172.8 234.906 172.8C232.543 172.8 231.802 170.418 231.802 166.928C231.802 162.717 232.958 161.165 234.965 161.165C237.189 161.165 237.99 163.468 237.99 167.037ZM250.07 159.722C249.882 159.722 249.833 159.771 249.833 159.959V173.996C249.833 174.184 249.882 174.234 250.07 174.234H254.173C255.3 174.234 259.106 174.184 259.106 170.022C259.106 165.762 255.062 165.653 253.481 165.653H251.899V161.531H257.148C257.445 161.531 257.554 161.392 257.633 161.125L257.959 160.077C257.989 160.028 257.989 159.998 257.989 159.939C257.989 159.83 257.939 159.702 257.692 159.702H250.08L250.07 159.722ZM251.889 172.504V167.412H253.332C254.193 167.412 255.319 167.412 256.12 168.134C256.733 168.727 256.872 169.479 256.872 170.121C256.872 172.158 255.053 172.504 253.471 172.504H251.889ZM270.86 160.097C270.86 160.048 270.889 160.018 270.889 159.988C270.889 159.85 270.81 159.83 270.652 159.771L269.179 159.425C269.021 159.425 268.962 159.534 268.942 159.642L266.935 166.819C266.747 167.492 266.559 168.134 266.401 168.994L265.462 166.394L262.813 159.642C262.763 159.504 262.704 159.405 262.546 159.405C262.516 159.405 262.467 159.405 262.407 159.435L261.043 159.89C260.964 159.919 260.885 159.998 260.885 160.127C260.885 160.176 260.885 160.236 260.915 160.285L264.75 169.854C264.859 170.121 264.8 170.18 265.205 170.18H266.035L265.877 170.793C265.66 171.574 265.264 172.8 264.029 172.8C263.09 172.8 262.526 172.019 262.071 172.019C261.992 172.019 261.933 172.049 261.884 172.158L261.399 173.205C261.369 173.255 261.369 173.344 261.369 173.393C261.369 173.611 261.528 173.719 261.587 173.769L261.775 173.907C262.23 174.234 263.06 174.55 264.078 174.55C265.818 174.55 266.896 173.561 267.617 171.12L270.889 160.107L270.86 160.097ZM275.605 165.831V159.988C275.605 159.801 275.555 159.751 275.367 159.751H273.815C273.628 159.751 273.549 159.781 273.549 159.988V173.977C273.549 174.194 273.598 174.243 273.815 174.243H275.367C275.555 174.243 275.605 174.194 275.605 174.006V167.581H276.92C278.046 167.581 278.738 168.006 279.094 169.508L279.628 171.732C280.004 173.393 280.992 174.55 282.979 174.55C283.325 174.55 283.385 174.441 283.404 174.313L283.731 173.186C283.76 173.136 283.76 173.077 283.76 173.027C283.76 172.869 283.652 172.81 283.434 172.79L283.058 172.741C282.179 172.583 281.882 172.128 281.635 171.189L280.963 168.806C280.725 167.927 280.053 166.908 279.144 166.72C279.786 166.454 280.429 165.94 280.854 164.229L281.18 162.944C281.368 162.163 281.556 161.55 282.623 161.283L282.861 161.234C282.999 161.204 283.157 161.155 283.157 160.967L282.861 159.712C282.831 159.553 282.752 159.474 282.515 159.474C282.218 159.474 280.982 159.583 280.261 160.384C279.727 160.977 279.48 161.857 279.292 162.638L278.995 163.844C278.699 164.941 278.402 165.88 276.662 165.88H275.595L275.605 165.831ZM295.811 170.2C295.811 168.46 294.872 167.096 293.102 166.641C294.466 165.969 295.188 164.793 295.188 163.241C295.188 161.125 294.12 159.731 290.473 159.731H286.667C286.37 159.731 286.261 159.81 286.261 160.107V173.907C286.261 174.204 286.37 174.253 286.667 174.253H290.048C293.587 174.253 295.811 173.265 295.811 170.21V170.2ZM292.944 163.448C292.944 165.267 292.064 165.989 289.969 165.989H288.337V161.432H290.403C292.282 161.432 292.944 161.857 292.944 163.438V163.448ZM293.587 170.151C293.587 171.841 292.539 172.533 290.562 172.533H288.337V167.709H290.423C292.43 167.709 293.587 168.51 293.587 170.151ZM299.538 159.731C299.301 159.731 299.192 159.81 299.192 160.107V173.937C299.192 174.204 299.301 174.263 299.518 174.263H303.403C304.53 174.263 308.336 174.214 308.336 170.052C308.336 165.791 304.293 165.683 302.711 165.683H301.268V160.028C301.268 159.84 301.238 159.731 300.892 159.731H299.548H299.538ZM301.248 172.543V167.403H302.691C304.243 167.403 306.23 167.808 306.23 170.131C306.23 172.217 304.382 172.543 302.83 172.543H301.248ZM312.31 160.137C312.31 159.919 312.31 159.731 311.964 159.731H310.57C310.274 159.731 310.244 159.998 310.244 160.137V173.967C310.244 174.154 310.293 174.263 310.54 174.263H312.013C312.28 174.263 312.31 174.125 312.31 173.917V160.147V160.137Z" fill="white"/>
<path d="M25.8145 114.307H40.1782V117.342H38.3C37.1038 117.342 36.3624 117.48 36.0658 117.767C35.7692 118.054 35.6308 118.736 35.6308 119.813V138.052H40.6231C42.4025 138.052 43.737 137.904 44.6169 137.598C45.4967 137.291 46.1293 136.777 46.5248 136.065C46.9004 135.373 47.1871 134.533 47.365 133.554C47.543 132.566 47.6418 131.38 47.6418 130.005V129.521H50.7163V141.097H25.8145V138.062H27.3665C28.5528 138.062 29.2843 137.924 29.571 137.647C29.8577 137.37 29.9961 136.678 29.9961 135.591V119.833C29.9961 118.746 29.8577 118.054 29.571 117.777C29.2843 117.5 28.5429 117.362 27.3665 117.362H25.8145V114.327V114.307ZM53.4941 141.077V138.042H55.0462C56.2324 138.042 56.964 137.904 57.2506 137.627C57.5373 137.35 57.6757 136.658 57.6757 135.561V119.804C57.6757 118.716 57.5373 118.034 57.2506 117.757C56.964 117.48 56.2225 117.342 55.0462 117.342H53.4941V114.307H79.8293V124.964H76.7945C76.7154 121.919 76.2112 119.883 75.3017 118.864C74.3824 117.846 72.5239 117.342 69.7263 117.342H63.3006V125.557H64.8131C66.4937 125.557 67.591 125.26 68.1149 124.687C68.629 124.104 68.9552 122.779 69.0837 120.693L72.1186 120.673V134.098L69.0837 134.078C68.9651 131.785 68.6487 130.302 68.1248 129.64C67.6107 128.967 66.5134 128.631 64.8527 128.631H63.3006V138.052H70.3095C72.6524 138.052 74.2637 137.509 75.1337 136.421C76.0036 135.334 76.5572 133.119 76.7846 129.748H79.8195V141.077H53.4842H53.4941ZM93.3924 117.253H92.8684C90.7331 117.253 89.1811 117.896 88.2024 119.171C87.2337 120.456 86.7295 122.532 86.6899 125.399H83.6155V114.307H108.834V125.399H105.759C105.73 122.562 105.235 120.505 104.257 119.21C103.288 117.915 101.726 117.263 99.6005 117.263H99.0173V135.581C99.0173 136.658 99.1656 137.341 99.4522 137.627C99.7488 137.914 100.49 138.052 101.676 138.052H103.96V141.087H88.4397V138.052H90.7628C91.9392 138.052 92.6806 137.914 92.9673 137.637C93.254 137.36 93.3924 136.668 93.3924 135.581V117.263V117.253ZM120.449 117.253H119.925C117.79 117.253 116.238 117.896 115.259 119.171C114.291 120.456 113.786 122.532 113.747 125.399H110.672V114.307H135.891V125.399H132.816C132.786 122.562 132.292 120.505 131.314 119.21C130.345 117.915 128.783 117.263 126.657 117.263H126.074V135.581C126.074 136.658 126.222 137.341 126.509 137.627C126.806 137.914 127.547 138.052 128.733 138.052H131.017V141.087H115.497V138.052H117.82C118.996 138.052 119.737 137.914 120.024 137.637C120.311 137.36 120.449 136.668 120.449 135.581V117.263V117.253ZM137.729 141.077V138.042H139.281C140.468 138.042 141.199 137.904 141.486 137.627C141.772 137.35 141.911 136.658 141.911 135.561V119.804C141.911 118.716 141.772 118.034 141.486 117.757C141.199 117.48 140.458 117.342 139.281 117.342H137.729V114.307H164.064V124.964H161.03C160.951 121.919 160.446 119.883 159.537 118.864C158.618 117.846 156.759 117.342 153.961 117.342H147.536V125.557H149.048C150.729 125.557 151.826 125.26 152.35 124.687C152.864 124.104 153.19 122.779 153.319 120.693L156.354 120.673V134.098L153.319 134.078C153.2 131.785 152.884 130.302 152.36 129.64C151.846 128.967 150.749 128.631 149.088 128.631H147.536V138.052H154.545C156.888 138.052 158.499 137.509 159.369 136.421C160.239 135.334 160.792 133.119 161.02 129.748H164.055V141.077H137.719H137.729ZM177.667 125.399H182.392C184.29 125.399 185.674 125.082 186.564 124.43C187.444 123.787 187.889 122.769 187.889 121.365C187.889 119.922 187.474 118.894 186.623 118.271C185.783 117.648 184.32 117.332 182.264 117.332H177.677V125.389L177.667 125.399ZM177.667 135.571C177.667 136.658 177.815 137.331 178.102 137.617C178.399 137.904 179.14 138.052 180.336 138.052H182.214V141.087H167.851V138.052H169.403C170.589 138.052 171.321 137.914 171.607 137.637C171.894 137.36 172.032 136.668 172.032 135.571V119.813C172.032 118.726 171.894 118.034 171.607 117.757C171.321 117.48 170.579 117.342 169.403 117.342H167.851V114.307H183.846C187.197 114.307 189.688 114.831 191.309 115.879C192.93 116.937 193.741 118.548 193.741 120.733C193.741 122.651 193.098 124.193 191.803 125.339C190.508 126.486 188.601 127.218 186.08 127.514C187.997 127.801 189.332 128.335 190.093 129.136C190.854 129.936 191.299 131.32 191.428 133.297L191.596 135.7C191.665 136.639 191.774 137.242 191.952 137.528C192.12 137.815 192.397 137.963 192.782 137.963C193.553 137.963 193.968 136.5 194.018 133.574C194.018 133.525 194.018 133.485 194.018 133.465H196.549C196.578 133.633 196.598 133.811 196.598 133.999C196.608 134.187 196.608 134.454 196.608 134.81C196.608 137.261 196.163 139.051 195.273 140.188C194.393 141.315 192.98 141.888 191.062 141.888C189.48 141.888 188.235 141.453 187.335 140.583C186.445 139.713 185.961 138.507 185.922 136.955L185.803 133.821C185.724 131.735 185.269 130.312 184.409 129.561C183.559 128.809 181.948 128.434 179.575 128.434H177.657V135.571H177.667ZM199.534 141.087V130.035H202.648C203.073 132.694 204.062 134.731 205.614 136.144C207.156 137.558 209.163 138.26 211.634 138.26C213.413 138.26 214.778 137.963 215.717 137.36C216.666 136.757 217.13 135.907 217.13 134.77C217.13 133.752 216.774 132.932 216.043 132.299C215.321 131.656 214.165 131.162 212.583 130.796L208.233 129.788C205.109 129.066 202.875 128.078 201.501 126.832C200.127 125.596 199.445 123.936 199.445 121.86C199.445 119.339 200.325 117.322 202.075 115.8C203.824 114.277 206.167 113.516 209.113 113.516C210.566 113.516 211.931 113.744 213.196 114.189C214.461 114.633 215.687 115.325 216.883 116.264L218.277 114.317H220.669V124.45H217.644C217.19 122.018 216.231 120.13 214.768 118.795C213.315 117.461 211.466 116.788 209.261 116.788C207.65 116.788 206.404 117.085 205.515 117.688C204.635 118.291 204.19 119.141 204.19 120.219C204.19 121.128 204.506 121.86 205.129 122.403C205.752 122.947 206.75 123.382 208.125 123.698L213.522 124.944C216.379 125.596 218.524 126.615 219.938 127.999C221.352 129.383 222.063 131.142 222.063 133.287C222.063 135.818 221.134 137.884 219.276 139.496C217.417 141.097 215.005 141.898 212.039 141.898C210.547 141.898 209.064 141.621 207.601 141.077C206.128 140.534 204.645 139.693 203.142 138.576L202.262 141.097H199.524L199.534 141.087ZM246.54 131.913V135.581C246.54 136.668 246.688 137.36 246.975 137.637C247.262 137.914 248.003 138.052 249.179 138.052H250.257V141.087H236.842V138.052H238.394C239.581 138.052 240.312 137.914 240.599 137.637C240.885 137.36 241.024 136.668 241.024 135.581V119.823C241.024 118.736 240.885 118.044 240.599 117.767C240.312 117.49 239.571 117.352 238.394 117.352H236.842V114.317H250.445V117.352H249.179C247.993 117.352 247.262 117.49 246.975 117.767C246.688 118.044 246.54 118.736 246.54 119.823V127.366L255.575 118.904C255.813 118.657 255.971 118.459 256.08 118.301C256.178 118.143 256.228 118.004 256.228 117.866C256.228 117.688 256.099 117.55 255.852 117.471C255.595 117.382 255.2 117.342 254.656 117.342H252.887V114.307H266.371V117.342H265.451C264.403 117.342 263.365 117.609 262.357 118.133C261.329 118.657 260.113 119.586 258.67 120.911L254.775 124.499L262.891 136.026C263.474 136.846 264.008 137.39 264.482 137.657C264.957 137.924 265.708 138.052 266.726 138.052H268.091V141.087H253.223V138.052H255.368C256.07 138.052 256.515 138.003 256.722 137.904C256.94 137.795 257.039 137.607 257.039 137.341C257.039 137.173 256.999 136.985 256.93 136.797C256.851 136.599 256.693 136.332 256.455 135.996L250.949 128.088L246.55 131.923L246.54 131.913ZM283.285 135.581C283.285 136.658 283.433 137.341 283.72 137.627C284.016 137.914 284.758 138.052 285.944 138.052H288.267V141.087H272.707V138.052H275.03C276.207 138.052 276.948 137.914 277.235 137.637C277.521 137.36 277.66 136.668 277.66 135.581V129.897L271.037 120.11C270.335 119.072 269.702 118.35 269.129 117.945C268.555 117.54 267.903 117.342 267.171 117.342H265.847V114.307H280.013V117.342H278.075C277.462 117.342 277.017 117.411 276.74 117.55C276.464 117.678 276.325 117.896 276.325 118.182C276.325 118.36 276.375 118.558 276.454 118.775C276.543 118.993 276.691 119.23 276.869 119.507L281.387 125.774L286.161 119.27C286.359 118.993 286.498 118.775 286.567 118.597C286.646 118.429 286.685 118.242 286.685 118.064C286.685 117.826 286.557 117.648 286.31 117.53C286.063 117.401 285.707 117.342 285.242 117.342H282.889V114.307H295.306V117.342H294.386C293.684 117.342 293.121 117.461 292.676 117.698C292.241 117.935 291.776 118.41 291.282 119.112L283.285 129.887V135.571V135.581ZM296.087 141.087V138.052H297.807C298.993 138.052 299.725 137.914 300.011 137.637C300.298 137.36 300.436 136.668 300.436 135.581V119.823C300.436 118.736 300.298 118.044 300.011 117.767C299.725 117.49 298.983 117.352 297.807 117.352H296.087V114.317H310.529V117.352H308.819C307.633 117.352 306.892 117.49 306.605 117.767C306.318 118.044 306.18 118.736 306.18 119.823V135.581C306.18 136.668 306.318 137.36 306.605 137.637C306.892 137.914 307.633 138.052 308.819 138.052H310.529V141.087H296.087ZM322.788 141.087L315.294 119.922C314.938 118.934 314.543 118.261 314.098 117.896C313.653 117.53 313.021 117.352 312.22 117.352H311.063V114.317H325.061V117.352H322.985C322.234 117.352 321.69 117.441 321.364 117.629C321.028 117.826 320.87 118.113 320.87 118.518C320.87 118.756 320.919 119.032 320.998 119.378C321.087 119.715 321.206 120.1 321.354 120.545L326.317 134.434L331.615 120.238C331.744 119.932 331.853 119.616 331.912 119.299C331.981 118.983 332.021 118.716 332.021 118.499C332.021 118.064 331.853 117.777 331.526 117.619C331.19 117.451 330.518 117.372 329.51 117.372H327.73V114.337H340.463V117.372H339.662C338.723 117.372 338.011 117.54 337.537 117.866C337.072 118.192 336.637 118.914 336.232 120.011L328.324 141.107H322.778L322.788 141.087Z" fill="black"/>
</g>
<defs>
<clipPath id="clip0">
<rect width="365.722" height="178" fill="white" transform="translate(0.27832)"/>
</clipPath>
</defs>
</svg>
